<svg xmlns="http://www.w3.org/2000/svg" xmlns:xlink="http://www.w3.org/1999/xlink" xmlns:inkscape="http://www.inkscape.org/namespaces/inkscape" version="1.1" width="375" height="375" viewBox="0 0 375 375">
<defs>
<clipPath id="clip_6">
<path transform="matrix(.24,0,0,.24,0,0)" d="M0 0H1562.5V1562.5H0Z" clip-rule="evenodd"/>
</clipPath>
<clipPath id="clip_7">
<path transform="matrix(.24,0,0,.24,0,0)" d="M0 0H1562.5V1562.5H0Z" clip-rule="evenodd"/>
</clipPath>
<clipPath id="clip_8">
<path transform="matrix(.24,0,0,.24,0,0)" d="M0 0H1562.5V1562.5H0Z" clip-rule="evenodd"/>
</clipPath>
<clipPath id="clip_9">
<path transform="matrix(.24,0,0,.24,88.799999,151.44)" d="M0 0H126V240H0Z" clip-rule="evenodd"/>
</clipPath>
<clipPath id="clip_10">
<path transform="matrix(.24,0,0,.24,104.64,150.95999)" d="M0 0H124V239H0Z" clip-rule="evenodd"/>
</clipPath>
<clipPath id="clip_11">
<path transform="matrix(.24,0,0,.24,86.88,162.95999)" d="M0 0H235V247H0Z" clip-rule="evenodd"/>
</clipPath>
</defs>
<g>
<g clip-path="url(#clip_6)">
<path transform="matrix(.75,0,0,.75,0,0)" d="M0 0H500V500H0Z" fill="#ffffff"/>
</g>
<g clip-path="url(#clip_7)">
<path transform="matrix(.75,0,0,.75,0,0)" d="M0 0H500V500H0Z"/>
</g>
<g clip-path="url(#clip_8)">
<text fill="#ffffff" xml:space="preserve" transform="matrix(.75 0 0 .75 140.49652 156.25734)" font-size="26.66" font-family="Poppins" font-weight="bold"><tspan y="27" x="0 19.645585 39.957567">ACD</tspan></text>
<text fill="#ffffff" xml:space="preserve" transform="matrix(.75 0 0 .75 140.49652 182.00733)" font-size="17.33" font-family="Poppins"><tspan y="15" x="0 11.679092 22.197205 32.715318 43.805253 50.2686 61.982347 68.28975 79.03313 83.65971 97.03694 108.12688 119.84062 130.584 135.21059">Accurate Code &#x0026;</tspan></text>
<text fill="#ffffff" xml:space="preserve" transform="matrix(.75 0 0 .75 140.49652 182.00733)" font-size="17.33" font-family="Poppins"><tspan y="35" x="0 12.250916 22.994294 32.03952 36.302217 48.01596">Design</tspan></text>
<g>
<g clip-path="url(#clip_9)">
<text fill="#ffffff" xml:space="preserve" transform="matrix(.7860013 0 0 .7860013 88.97436 151.65438)" font-size="53.33" font-family="CanvaSans" font-weight="bold"><tspan y="57" x="0">A</tspan></text>
</g>
</g>
<g>
<g clip-path="url(#clip_10)">
<text fill="#ffffff" xml:space="preserve" transform="matrix(.7814399 -.00000000000000009690879 .00000000000000009690879 .7814399 104.699527 151.12865)" font-size="53.33" font-family="CanvaSans" font-weight="bold"><tspan y="57" x="0">C</tspan></text>
</g>
</g>
<g>
<g clip-path="url(#clip_11)">
<text fill="#ffffff" xml:space="preserve" transform="matrix(.5508234 .45950396 -.45950396 .5508234 120.52356 163.17807)" font-size="53.33" font-family="CanvaSans" font-weight="bold"><tspan y="57" x="0">D</tspan></text>
</g>
</g>
</g>
</g>
</svg>
